<svg xmlns="http://www.w3.org/2000/svg" viewBox="0 0 486.89 488.84"><defs><style>.cls-1{fill:#65b787;}.cls-2{fill:#52a5a0;}</style></defs><path class="cls-1" d="M206.8,352.34l-163.09-.07c-18.57,0-28.4-9.75-28.4-28.16q0-140.62,0-281.25c0-17.8,10-27.78,27.79-27.78H324.88c17.72,0,27.64,10,27.65,27.9q0,82.79.07,165.57l-119.52.07c-15.64,0-26.2,10.57-26.21,26.2Q206.83,293.58,206.8,352.34Z" transform="translate(-15.3 -15.07)"/><path class="cls-2" d="M206.8,352.34q0-58.75.07-117.52c0-15.63,10.57-26.19,26.21-26.2l119.52-.07,122.19.07c17.17,0,27.39,10.12,27.4,27.15q0,120.43,0,240.86c0,17.1-10.17,27.28-27.28,27.28H234c-17,0-27.15-10.23-27.16-27.4Q206.83,414.43,206.8,352.34Z" transform="translate(-15.3 -15.07)"/></svg>